<svg width="24" height="24" viewBox="0 0 24 24" fill="none" xmlns="http://www.w3.org/2000/svg">
<path d="M12 0C5.37258 0 0 5.37258 0 12C0 18.6274 5.37258 24 12 24C18.6274 24 24 18.6274 24 12C24 5.37258 18.6274 0 12 0ZM5.62308 6.03268H18.3761V17.9673H5.62308V6.03268ZM7.1953 7.59194V16.4088H16.8047V7.59194H7.1953ZM8.24316 8.71656H15.731V12.6261H8.24316V8.71656ZM8.24316 13.3039H10.364V15.4248H8.24316V13.3039ZM10.9263 13.3039H13.0478V15.4248H10.9263V13.3039ZM13.6094 13.3039H15.731V15.4248H13.6094V13.3039Z" fill="white"/>
</svg>
