<svg width="17" height="17" viewBox="0 0 17 17" fill="none" xmlns="http://www.w3.org/2000/svg">
<path d="M14.8092 11.7295H16.5326C17.0432 11.7295 17.1284 12.0912 16.7666 12.5046L14.256 15.579C14.0432 15.8632 13.639 15.8632 13.4049 15.579L10.873 12.5046C10.5326 12.0912 10.6177 11.7295 11.1284 11.7295H12.8518V4.13374C12.7666 3.07447 12.0432 2.27356 11.1496 2.27356C10.2347 2.27356 9.49005 3.12614 9.4475 4.21125V11.8587C9.38367 13.4605 8.59644 14.8815 7.49005 15.6049C6.97941 15.9149 6.42622 16.0699 5.8092 16.0699C5.19218 16.0699 4.66027 15.9149 4.14963 15.6049C3.02197 14.8815 2.21346 13.4605 2.1709 11.8328V4.34043H0.468777C-0.0418613 4.34043 -0.148244 4.00456 0.213458 3.59119L2.7241 0.516717C2.95814 0.232523 3.36239 0.232523 3.57516 0.516717L6.10707 3.59119C6.46878 4.00456 6.36239 4.34043 5.85176 4.34043H4.14963V11.8587C4.19218 12.9438 4.89431 13.8222 5.8092 13.8222C6.7241 13.8222 7.49005 12.8921 7.49005 11.7812V4.21125C7.55388 2.58359 8.31984 1.21429 9.4475 0.490881C9.95814 0.180851 10.5326 0 11.1496 0C11.7666 0 12.3198 0.180851 12.8518 0.490881C13.9369 1.18845 14.7028 2.53191 14.8092 4.1079V11.7295Z" fill="white"/>
</svg>
