<svg width="20" height="20" viewBox="0 0 20 20" fill="none" xmlns="http://www.w3.org/2000/svg">
<path d="M0 10C0 15.5226 4.4774 20 10 20C15.5226 20 20 15.5226 20 10C20 4.4774 15.5226 0 10 0C4.4774 0 0 4.4774 0 10ZM10.2236 5.60769C10.2953 5.67884 10.3523 5.76342 10.3913 5.85661C10.4304 5.94979 10.4507 6.04975 10.4511 6.15079C10.4515 6.25182 10.432 6.35194 10.3937 6.44543C10.3554 6.53892 10.299 6.62396 10.2279 6.69567L7.7125 9.23077H14.1346C14.3386 9.23077 14.5343 9.31181 14.6785 9.45607C14.8228 9.60033 14.9038 9.79599 14.9038 10C14.9038 10.204 14.8228 10.3997 14.6785 10.5439C14.5343 10.6882 14.3386 10.7692 14.1346 10.7692H7.7125L10.2279 13.3043C10.299 13.3761 10.3554 13.4612 10.3936 13.5548C10.4319 13.6483 10.4514 13.7485 10.4509 13.8496C10.4505 13.9506 10.4301 14.0506 10.391 14.1438C10.3519 14.237 10.2949 14.3216 10.2231 14.3928C10.1513 14.4639 10.0662 14.5203 9.97264 14.5585C9.8791 14.5968 9.77892 14.6163 9.67785 14.6158C9.57678 14.6154 9.47678 14.595 9.38357 14.5559C9.29037 14.5168 9.20577 14.4598 9.13462 14.388L5.31779 10.5418C5.17481 10.3977 5.09458 10.203 5.09458 10C5.09458 9.79702 5.17481 9.60226 5.31779 9.45817L9.13462 5.61202C9.20578 5.54014 9.29042 5.48301 9.3837 5.44388C9.47697 5.40476 9.57704 5.38441 9.67819 5.38401C9.77934 5.38361 9.87957 5.40316 9.97315 5.44154C10.0667 5.47992 10.1518 5.53638 10.2236 5.60769Z" fill="white"/>
</svg>
