<svg width="18" height="16" viewBox="0 0 18 16" fill="none" xmlns="http://www.w3.org/2000/svg">
<path d="M4.41841 9.04234C4.41841 7.79152 3.41423 6.74918 2.20921 6.74918C0.979079 6.74918 0 7.79152 0 9.04234C0 10.2932 0.979079 11.3355 2.20921 11.3355C3.41423 11.3355 4.41841 10.2932 4.41841 9.04234ZM11.1967 9.04234C11.1967 7.79152 10.1925 6.74918 8.98745 6.74918C7.78243 6.74918 6.77824 7.79152 6.77824 9.04234C6.77824 10.2932 7.78243 11.3355 8.98745 11.3355C10.1925 11.3355 11.1967 10.2932 11.1967 9.04234ZM18 9.04234C18 7.79152 17.0209 6.74918 15.7908 6.74918C14.5858 6.74918 13.5816 7.79152 13.5816 9.04234C13.5816 10.2932 14.5858 11.3355 15.7908 11.3355C17.0209 11.3355 18 10.2932 18 9.04234Z" fill="white"/>
</svg>
