<svg width="18" height="6" viewBox="0 0 18 6" fill="none" xmlns="http://www.w3.org/2000/svg">
<path d="M4.41841 3.04231C4.41841 1.79149 3.41423 0.749146 2.20921 0.749146C0.97908 0.749146 0 1.79149 0 3.04231C0 4.29312 0.97908 5.33547 2.20921 5.33547C3.41423 5.33547 4.41841 4.29312 4.41841 3.04231ZM11.1967 3.04231C11.1967 1.79149 10.1925 0.749146 8.98745 0.749146C7.78243 0.749146 6.77824 1.79149 6.77824 3.04231C6.77824 4.29312 7.78243 5.33547 8.98745 5.33547C10.1925 5.33547 11.1967 4.29312 11.1967 3.04231ZM18 3.04231C18 1.79149 17.0209 0.749146 15.7908 0.749146C14.5858 0.749146 13.5816 1.79149 13.5816 3.04231C13.5816 4.29312 14.5858 5.33547 15.7908 5.33547C17.0209 5.33547 18 4.29312 18 3.04231Z" fill="#343434"/>
</svg>
